<?xml version="1.0" encoding="utf-8"?>
<!-- Generator: Adobe Illustrator 25.0.1, SVG Export Plug-In . SVG Version: 6.00 Build 0)  -->
<svg version="1.1" id="Layer_1" xmlns:svgjs="http://svgjs.com/svgjs"
	 xmlns="http://www.w3.org/2000/svg" xmlns:xlink="http://www.w3.org/1999/xlink" x="0px" y="0px" viewBox="0 0 42 39"
	 style="enable-background:new 0 0 42 39;" xml:space="preserve">
<style type="text/css">
	.st0{fill-rule:evenodd;clip-rule:evenodd;fill:#2395C6;}
</style>
<path class="st0" d="M37.5,0h-33C2,0,0,2,0,4.5v29.9C0,37,2,39,4.5,39h33c2.6,0,4.5-1.9,4.5-4.5V4.5C42,2,40.1,0,37.5,0z M4.5,3h33
	C38.4,3,39,3.6,39,4.5V12H3V4.5C3,3.6,3.6,3,4.5,3L4.5,3z M37.5,36h-33C3.6,36,3,35.4,3,34.5V15h36v19.5C39,35.4,38.4,36,37.5,36z"
	/>
<path class="st0" d="M29.5,18.5l-11,10.9l-5-4.9c-0.6-0.6-1.5-0.6-2.1,0c-0.6,0.6-0.6,1.5,0,2.1l6,6c0.3,0.3,0.7,0.4,1.1,0.4
	c0.3,0,0.7-0.1,1-0.4l12-12c0.6-0.6,0.6-1.5,0-2.1C30.9,17.9,30,17.9,29.5,18.5L29.5,18.5z"/>
<path class="st0" d="M7.7,9.7h6.7C15.3,9.7,16,9,16,8s-0.7-1.7-1.7-1.7H7.7C6.7,6.3,6,7,6,8S6.7,9.7,7.7,9.7L7.7,9.7z"/>
<path class="st0" d="M20,10c0.6,0,1-0.2,1.4-0.6C21.8,9,22,8.6,22,8s-0.2-1-0.6-1.4c-0.8-0.8-2-0.8-2.8,0C18.2,7,18,7.4,18,8
	c0,0.6,0.2,1,0.6,1.4C19,9.8,19.4,10,20,10L20,10z"/>
<path class="st0" d="M26,10c0.6,0,1-0.2,1.4-0.6C27.8,9,28,8.6,28,8s-0.2-1-0.6-1.4c-0.8-0.8-2-0.8-2.8,0C24.2,7,24,7.4,24,8
	s0.2,1,0.6,1.4C25,9.8,25.4,10,26,10L26,10z"/>
</svg>
