<?xml version="1.0" encoding="utf-8"?>
<!-- Generator: Adobe Illustrator 25.0.1, SVG Export Plug-In . SVG Version: 6.00 Build 0)  -->
<svg version="1.1" id="Layer_1" xmlns:svgjs="http://svgjs.com/svgjs"
	 xmlns="http://www.w3.org/2000/svg" xmlns:xlink="http://www.w3.org/1999/xlink" x="0px" y="0px" viewBox="0 0 41 39"
	 style="enable-background:new 0 0 41 39;" xml:space="preserve">
<style type="text/css">
	.st0{fill-rule:evenodd;clip-rule:evenodd;fill:#2395C6;}
</style>
<path class="st0" d="M34.4,19.5c-1.9,0-3.7,0.8-4.9,2.2c-0.9-0.5-1.9-0.9-2.9-1.3c1.6-2.7,2.5-6,2.5-9c0-6.2-5.1-11.3-11.3-11.3
	S6.5,5.2,6.5,11.4c0,2.9,1,6.3,2.7,9.1c-2.3,0.9-4.4,2.1-6.4,3.7C2.5,24.4,0,26.4,0,30v7.4c0,0.8,0.7,1.5,1.5,1.5h32.8
	c0.8,0,1.5-0.7,1.5-1.5v-4.7c3.6-0.8,5.8-4.4,4.9-8C40.1,21.6,37.4,19.5,34.4,19.5L34.4,19.5z M17.7,3.2c4.6,0,8.3,3.7,8.3,8.3
	c0,4.8-3.1,11.5-8.3,11.5c-2.9,0-4.9-2.4-5.9-3.8C10.3,17,9.4,14,9.4,11.5C9.4,6.9,13.2,3.2,17.7,3.2z M32.8,35.8H3V30
	c0-2.2,1.5-3.4,1.6-3.5c1.9-1.5,4.1-2.7,6.5-3.5c1.8,1.8,4,3,6.6,3c2.5,0,4.9-1.1,6.8-3c1.2,0.4,2.3,0.9,3.4,1.4
	c-1,3.5,1.1,7.2,4.6,8.2c0.1,0,0.2,0,0.3,0.1V35.8L32.8,35.8z M37.8,27.5h-2.1v2.1c0,0.7-0.6,1.3-1.3,1.3s-1.3-0.6-1.3-1.3l0,0v-2.1
	H31c-0.7,0-1.3-0.6-1.3-1.3c0-0.7,0.6-1.3,1.3-1.3h2v-2.1c0-0.7,0.6-1.3,1.4-1.3c0.7,0,1.3,0.6,1.3,1.3v2.1h2.1
	c0.7,0,1.3,0.6,1.3,1.3S38.5,27.5,37.8,27.5L37.8,27.5z"/>
</svg>
