<?xml version="1.0" encoding="utf-8"?>
<!-- Generator: Adobe Illustrator 25.0.1, SVG Export Plug-In . SVG Version: 6.00 Build 0)  -->
<svg version="1.1" id="Layer_1" xmlns:svgjs="http://svgjs.com/svgjs"
	 xmlns="http://www.w3.org/2000/svg" xmlns:xlink="http://www.w3.org/1999/xlink" x="0px" y="0px" viewBox="0 0 43 39"
	 style="enable-background:new 0 0 43 39;" xml:space="preserve">
<style type="text/css">
	.st0{fill-rule:evenodd;clip-rule:evenodd;fill:#2395C6;}
</style>
<path class="st0" d="M5.9,0.1C2.6,0.1,0,2.7,0,6v19.1C0,28.4,2.6,31,5.9,31h2v6.5c0,0.7,0.6,1.3,1.3,1.4c0.4,0,0.7-0.1,1-0.4
	l7.5-7.5h19.4c3.2,0,5.9-2.6,5.9-5.9V6c0-3.2-2.6-5.9-5.9-5.9L5.9,0.1L5.9,0.1z M5.9,2.8h31.2c1.8,0,3.2,1.4,3.2,3.2v19.1
	c0,1.8-1.4,3.2-3.2,3.2h-20c-0.4,0-0.7,0.1-1,0.4l-5.6,5.6v-4.7c0-0.7-0.6-1.3-1.3-1.3H5.9c-1.7,0-3.2-1.4-3.2-3.1c0,0,0,0,0-0.1V6
	C2.7,4.2,4.1,2.8,5.9,2.8C5.8,2.8,5.9,2.8,5.9,2.8L5.9,2.8z M11,11.2c-0.3,0-0.5,0.2-0.6,0.4l-0.8,2.1l-2.3,0.2
	c-0.4,0-0.6,0.3-0.6,0.7c0,0.2,0.1,0.3,0.2,0.5l1.7,1.5L8,18.8c0,0.2,0.2,0.6,0.6,0.7c0.2,0,0.3,0,0.5-0.1l1.9-1.2l1.9,1.2
	c0.3,0.2,0.7,0.1,0.9-0.2c0.1-0.1,0.1-0.3,0.1-0.5l-0.6-2.2L15,15c0.3-0.2,0.3-0.6,0.1-0.9c-0.1-0.1-0.3-0.2-0.5-0.2l-2.3-0.2
	l-0.8-2.1C11.5,11.4,11.3,11.2,11,11.2L11,11.2z M21.5,11.2c-0.3,0-0.5,0.2-0.6,0.4l-0.8,2.1l-2.3,0.2c-0.4,0-0.6,0.3-0.6,0.7
	c0,0.2,0.1,0.3,0.2,0.5l1.7,1.5l-0.6,2.2c-0.1,0.3,0.1,0.7,0.5,0.8c0.2,0,0.3,0,0.5-0.1l1.9-1.2l1.9,1.2c0.3,0.2,0.7,0.1,0.9-0.2
	c0.1-0.1,0.1-0.3,0.1-0.5l-0.6-2.2l1.7-1.5c0.3-0.2,0.3-0.6,0.1-0.9c-0.1-0.1-0.3-0.2-0.4-0.2L23,13.7l-0.8-2.1
	C22,11.4,21.8,11.2,21.5,11.2z M32,11.2c-0.3,0-0.5,0.2-0.6,0.4l-0.8,2.1l-2.3,0.2c-0.4,0-0.6,0.3-0.6,0.7c0,0.2,0.1,0.3,0.2,0.5
	l1.7,1.5L29,18.8c-0.1,0.4,0.1,0.7,0.5,0.8c0.2,0,0.3,0,0.5-0.1l1.9-1.2l1.9,1.2c0.3,0.2,0.7,0.1,0.9-0.2c0.1-0.1,0.1-0.3,0.1-0.5
	l-0.6-2.2l1.7-1.5c0.3-0.2,0.3-0.6,0.1-0.9c-0.1-0.1-0.3-0.2-0.5-0.2l-2.3-0.2l-0.8-2.1C32.5,11.4,32.3,11.2,32,11.2L32,11.2z"/>
</svg>
