<?xml version="1.0" encoding="utf-8"?>
<!-- Generator: Adobe Illustrator 25.0.1, SVG Export Plug-In . SVG Version: 6.00 Build 0)  -->
<svg version="1.1" id="Layer_1" xmlns:svgjs="http://svgjs.com/svgjs"
	 xmlns="http://www.w3.org/2000/svg" xmlns:xlink="http://www.w3.org/1999/xlink" x="0px" y="0px" viewBox="0 0 50 56"
	 style="enable-background:new 0 0 50 56;" xml:space="preserve">
<style type="text/css">
	.st0{fill-rule:evenodd;clip-rule:evenodd;fill:#0091FF;}
</style>
<path class="st0" d="M39.3,36.1H10.7c-5.5,0-10,4.5-10,10v8.7C0.7,55.4,1.3,56,2,56h46c0.7,0,1.2-0.6,1.2-1.2V46
	C49.3,40.6,44.8,36.1,39.3,36.1L39.3,36.1z M11.9,53.5H3.2V46c0-4.1,3.4-7.5,7.5-7.5h1.2V53.5z M18.5,53.5h-4V38.6h4l2.1,7.5
	L18.5,53.5L18.5,53.5z M21.1,53.5l1.8-6.2h4.4l1.8,6.2H21.1z M27.2,44.8h-4.4L21,38.6h7.9L27.2,44.8L27.2,44.8z M35.6,53.5h-4
	L29.4,46l2.1-7.5h4C35.6,38.6,35.6,53.5,35.6,53.5z M46.8,53.5h-8.7V38.6h1.2c4.1,0,7.5,3.4,7.5,7.5V53.5L46.8,53.5z M10.7,24.9h2.6
	c2.1,4.4,6.6,7.5,11.8,7.5s9.7-3,11.8-7.5h2.5c2.1,0,3.7-1.7,3.7-3.7v-3.7c0-2.1-1.7-3.7-3.7-3.7h-1.2v-0.6C38.1,5.8,32.2,0,25,0
	S11.9,5.8,11.9,13.1v0.6h-1.2c-2.1,0-3.7,1.7-3.7,3.7v3.7C7,23.2,8.6,24.9,10.7,24.9z M38.1,19.3v-3.1h1.2c0.7,0,1.2,0.6,1.2,1.2
	v3.7c0,0.7-0.6,1.2-1.2,1.2h-1.6C37.9,21.4,38.1,20.3,38.1,19.3z M25,2.5c5.3,0,9.6,3.9,10.5,9C33,8.1,29.1,6.2,25,6.2
	s-8,1.9-10.5,5.2C15.4,6.4,19.7,2.5,25,2.5z M25,8.7c5.8,0,10.6,4.7,10.6,10.6l0,0c0,5.8-4.7,10.6-10.6,10.6l0,0
	c-5.8,0-10.6-4.7-10.6-10.6l0,0C14.4,13.4,19.2,8.7,25,8.7L25,8.7z M9.4,17.4c0-0.7,0.6-1.2,1.2-1.2h1.2v3.1c0,1.1,0.1,2.1,0.4,3.1
	h-1.6c-0.7,0-1.2-0.6-1.2-1.2L9.4,17.4L9.4,17.4z"/>
</svg>
