<?xml version="1.0" encoding="utf-8"?>
<!-- Generator: Adobe Illustrator 25.0.1, SVG Export Plug-In . SVG Version: 6.00 Build 0)  -->
<svg version="1.1" id="Layer_1" xmlns:svgjs="http://svgjs.com/svgjs"
	 xmlns="http://www.w3.org/2000/svg" xmlns:xlink="http://www.w3.org/1999/xlink" x="0px" y="0px" viewBox="0 0 49 41"
	 style="enable-background:new 0 0 49 41;" xml:space="preserve">
<style type="text/css">
	.st0{fill-rule:evenodd;clip-rule:evenodd;fill:#2395C6;}
</style>
<path class="st0" d="M33.9,29.9v2.2H10.5c-0.6,0-1.2,0.2-1.7,0.6L3.2,37V3.6h30.7v9.9l3.3-3.7V3.1c0-1.5-1.3-2.8-2.8-2.8H2.8
	C1.3,0.3,0,1.6,0,3.1l0,0v34.7c0,1.1,0.6,2,1.5,2.5c0.4,0.2,0.8,0.3,1.2,0.3c0.6,0,1.2-0.2,1.7-0.6l6-4.7h23.9
	c1.5,0,2.8-1.3,2.8-2.8v-5.7L35,29.1C34.8,29.5,34.4,29.8,33.9,29.9L33.9,29.9z M9.5,11.4h18.2c0.9,0,1.7-0.7,1.7-1.7
	c0-0.9-0.7-1.7-1.7-1.7H9.5C8.6,8,7.8,8.8,7.8,9.7C7.9,10.7,8.6,11.4,9.5,11.4z M29.3,17.6c0-0.9-0.7-1.7-1.7-1.7H9.5
	c-0.9,0-1.7,0.8-1.7,1.7s0.7,1.7,1.7,1.7h18.2C28.6,19.3,29.3,18.5,29.3,17.6z M7.9,25.5c0,0.9,0.7,1.7,1.7,1.7h15.7l0.6-3.2H9.5
	C8.6,23.9,7.9,24.6,7.9,25.5z M31.1,20.4l9.7-10.8l4.6,4.1l-9.7,10.8L31.1,20.4L31.1,20.4z M48.7,8.7l-3.2-2.9
	c-0.4-0.4-1-0.3-1.3,0.1l-1.9,2.2l4.6,4.1l1.9-2.2C49.1,9.7,49.1,9,48.7,8.7L48.7,8.7z M28.8,28.8l3.9-1.1c0.2-0.1,0.3-0.2,0.4-0.3
	l1.1-1.2L29.7,22l-1.1,1.2c-0.1,0.2-0.2,0.3-0.2,0.5l-0.7,4C27.6,28.4,28.2,29,28.8,28.8L28.8,28.8z"/>
</svg>
