<?xml version="1.0" encoding="utf-8"?>
<!-- Generator: Adobe Illustrator 25.0.1, SVG Export Plug-In . SVG Version: 6.00 Build 0)  -->
<svg version="1.1" id="Layer_1" xmlns:svgjs="http://svgjs.com/svgjs"
	 xmlns="http://www.w3.org/2000/svg" xmlns:xlink="http://www.w3.org/1999/xlink" x="0px" y="0px" viewBox="0 0 52 61"
	 style="enable-background:new 0 0 52 61;" xml:space="preserve">
<style type="text/css">
	.st0{fill-rule:evenodd;clip-rule:evenodd;fill:#0091FF;}
</style>
<path class="st0" d="M25.5,29c8,0,14.5-6.5,14.5-14.5C40,6.5,33.5,0,25.5,0S11,6.5,11,14.5S17.5,29,25.5,29z M25.5,3.4
	c6.1,0,11.1,5,11.1,11.1s-5,11.1-11.1,11.1c-6.1,0-11.1-5-11.1-11.1C14.4,8.4,19.4,3.4,25.5,3.4z"/>
<path class="st0" d="M40.3,33H32c-0.6,0-1.2,0.3-1.5,0.9L26,42.6l-4.6-8.7c-0.3-0.6-0.9-0.9-1.5-0.9h-8.2C5.4,33,0.3,38.2,0.3,44.6
	v14.7C0.3,60.2,1,61,1.9,61h48.1c0.9,0,1.7-0.8,1.7-1.7V44.6C51.7,38.2,46.6,33,40.3,33L40.3,33z M48.4,57.6H3.6v-13
	c0-3.3,1.9-6.2,4.9-7.6c0.4,1.8,1.2,4.5,2.9,7.7c-0.8,0.9-1.2,2.1-1.2,3.3c0,2.8,2.2,5,4.9,5c2.7,0,4.9-2.2,4.9-5c0-2.8-2.2-5-4.9-5
	c-0.3,0-0.5,0-0.8,0.1c-1.5-2.7-2.2-5.1-2.5-6.6h7.1L24.5,47c0.7,1.2,2.3,1.2,3,0L33,36.4h7.2c0.4,0,0.7,0,1.1,0.1
	c-0.4,1.3-1.1,2.9-1.7,4c-3.2-0.3-7.1,2.6-9.6,7.6c-0.2,0.3-0.2,0.7-0.2,1.1l0.4,2.2c0.2,0.9,1,1.5,1.9,1.4c0,0,0,0,0,0
	c0.9-0.2,1.5-1.1,1.4-2l-0.3-1.7c2.2-4,5.2-5.8,6.4-5.1c0.6,0.3,1,1.3,1,2.7c0,1.7-0.5,3.7-1.4,5.6L37.8,53
	c-0.8,0.4-1.2,1.4-0.8,2.3c0.4,0.8,1.3,1.2,2.2,0.8l2-1c0.3-0.2,0.6-0.4,0.8-0.8c1.3-2.6,2-5.3,2-7.7c0-1.9-0.5-3.5-1.4-4.6
	c0.6-1.1,1.4-2.8,1.9-4.4c2.4,1.5,3.8,4.1,3.8,6.9L48.4,57.6L48.4,57.6L48.4,57.6z M13.6,48c0-0.9,0.7-1.6,1.6-1.6s1.6,0.7,1.6,1.6
	c0,0.9-0.7,1.6-1.6,1.6C14.3,49.6,13.6,48.9,13.6,48C13.6,48,13.6,48,13.6,48z"/>
</svg>
