<svg xmlns="http://www.w3.org/2000/svg" viewBox="0 0 348.96 133"><g style="isolation:isolate"><g id="Layer_1" data-name="Layer 1"><path id="DigiLanguageSupport-Copy" d="M161.15,31.06a15,15,0,0,0,6.2-1.19,12.3,12.3,0,0,0,4.39-3.29,13.65,13.65,0,0,0,2.64-5,21.48,21.48,0,0,0,.87-6.26,19.43,19.43,0,0,0-1.07-6.75,13.23,13.23,0,0,0-3-4.78A12.06,12.06,0,0,0,166.74,1a15.93,15.93,0,0,0-5.59-1h-13.4V31.06Zm-.48-5.74h-6.09V5.74h4.87a11,11,0,0,1,4.25.72,6.72,6.72,0,0,1,2.76,2.07,8.5,8.5,0,0,1,1.5,3.24,18.3,18.3,0,0,1,.46,4.24,12.6,12.6,0,0,1-.66,4.35A7.83,7.83,0,0,1,166,23.25a6.28,6.28,0,0,1-2.48,1.59A8.69,8.69,0,0,1,160.67,25.32Zm25-20.23V0h-6.18V5.09Zm0,26V8.57h-6.18V31.06Zm14.83,8.49a15.14,15.14,0,0,0,6.18-1A9.34,9.34,0,0,0,210.22,36a7.45,7.45,0,0,0,1.59-3.24,14.83,14.83,0,0,0,.37-3.09V8.57h-5.87v3h-.09a6.73,6.73,0,0,0-2.8-2.78,8.75,8.75,0,0,0-3.9-.83,9.06,9.06,0,0,0-4.15.92,8.84,8.84,0,0,0-3,2.45,11,11,0,0,0-1.84,3.57,13.75,13.75,0,0,0-.64,4.2,17.21,17.21,0,0,0,.55,4.37,10,10,0,0,0,1.72,3.61,8.27,8.27,0,0,0,3,2.44,9.9,9.9,0,0,0,4.35.89,9.15,9.15,0,0,0,3.89-.85,6,6,0,0,0,2.85-2.63h.09v3a6.2,6.2,0,0,1-1.15,4,4.5,4.5,0,0,1-3.81,1.56,6.07,6.07,0,0,1-2.91-.67,3.51,3.51,0,0,1-1.7-2.42H190.6a6.56,6.56,0,0,0,1.07,3.29A7.73,7.73,0,0,0,194,37.85a10.58,10.58,0,0,0,3.13,1.28A14.2,14.2,0,0,0,200.52,39.55Zm.53-13.79a4.45,4.45,0,0,1-2.4-.61,4.81,4.81,0,0,1-1.54-1.57,6.64,6.64,0,0,1-.83-2.15A12.34,12.34,0,0,1,196,19a10,10,0,0,1,.29-2.41,5.87,5.87,0,0,1,.91-2.05,4.78,4.78,0,0,1,1.56-1.41,4.56,4.56,0,0,1,2.25-.52,5.16,5.16,0,0,1,2.52.56,4.6,4.6,0,0,1,1.61,1.52,6.94,6.94,0,0,1,.87,2.2,13.11,13.11,0,0,1,.26,2.63,8.1,8.1,0,0,1-.33,2.33,5.92,5.92,0,0,1-1,2,4.76,4.76,0,0,1-1.65,1.39A4.88,4.88,0,0,1,201.05,25.76ZM223.49,5.09V0h-6.17V5.09Zm0,26V8.57h-6.17V31.06ZM169.72,74.57V68.82H154.58V43.51h-6.83V74.57Zm9.88.56a13.88,13.88,0,0,0,4.09-.61,8,8,0,0,0,3.48-2.13,9.16,9.16,0,0,0,.43,2.18h6.27a5.2,5.2,0,0,1-.61-2.09,22.78,22.78,0,0,1-.18-2.92h0V57.86a5.38,5.38,0,0,0-.91-3.28,6.28,6.28,0,0,0-2.35-1.94,10.63,10.63,0,0,0-3.17-.93,25.19,25.19,0,0,0-3.44-.24,18.62,18.62,0,0,0-3.72.37,10.53,10.53,0,0,0-3.33,1.24,7.35,7.35,0,0,0-2.44,2.3A7.19,7.19,0,0,0,172.64,59h6.17A3.52,3.52,0,0,1,180,56.38a4.72,4.72,0,0,1,2.87-.78,10.77,10.77,0,0,1,1.55.11,3.48,3.48,0,0,1,1.26.43,2.49,2.49,0,0,1,.87.92,3.23,3.23,0,0,1,.33,1.58,1.66,1.66,0,0,1-.57,1.46,4.08,4.08,0,0,1-1.65.76,16.19,16.19,0,0,1-2.4.4c-.89.08-1.81.2-2.74.34a26.6,26.6,0,0,0-2.76.59,8,8,0,0,0-2.43,1.11,5.52,5.52,0,0,0-1.75,2,6.68,6.68,0,0,0-.67,3.15,7.15,7.15,0,0,0,.59,3,5.58,5.58,0,0,0,1.63,2.08,6.91,6.91,0,0,0,2.44,1.22A11,11,0,0,0,179.6,75.13ZM181.9,71a7.46,7.46,0,0,1-1.43-.13,3.47,3.47,0,0,1-1.22-.45,2.4,2.4,0,0,1-.83-.9,2.92,2.92,0,0,1-.3-1.39,3,3,0,0,1,.3-1.43,2.83,2.83,0,0,1,.81-.94,4,4,0,0,1,1.17-.59,11,11,0,0,1,1.37-.34c.5-.09,1-.16,1.48-.22s1-.13,1.42-.22a8.9,8.9,0,0,0,1.26-.33,2.8,2.8,0,0,0,1-.54h0v2.31a12.53,12.53,0,0,1-.11,1.39,4.83,4.83,0,0,1-.59,1.72,4,4,0,0,1-1.48,1.45A5.43,5.43,0,0,1,181.9,71Zm22.15,3.53V62.78c0-2.29.37-3.94,1.13-4.94a4.27,4.27,0,0,1,3.65-1.5,3.38,3.38,0,0,1,3.09,1.37,7.87,7.87,0,0,1,.87,4.15V74.57H219V60.73a17.81,17.81,0,0,0-.37-3.8A7.28,7.28,0,0,0,217.32,54a6,6,0,0,0-2.51-1.87,10.43,10.43,0,0,0-4.06-.67,8.73,8.73,0,0,0-3.83.89,7.07,7.07,0,0,0-3,2.85h-.13V52.08h-5.87V74.57Zm29.58,8.48a15.33,15.33,0,0,0,6.18-1,9.46,9.46,0,0,0,3.52-2.55,7.68,7.68,0,0,0,1.59-3.24,14.83,14.83,0,0,0,.37-3.09v-21h-5.87v3h-.09a6.67,6.67,0,0,0-2.81-2.79,8.67,8.67,0,0,0-3.89-.82,9,9,0,0,0-4.15.91,8.89,8.89,0,0,0-3,2.46,11,11,0,0,0-1.85,3.57A13.94,13.94,0,0,0,223,62.6a16.85,16.85,0,0,0,.55,4.38,10.22,10.22,0,0,0,1.71,3.61,8.26,8.26,0,0,0,3,2.43,9.7,9.7,0,0,0,4.35.9,9.3,9.3,0,0,0,3.89-.85,6.18,6.18,0,0,0,2.85-2.64h.09v3a6.11,6.11,0,0,1-1.16,4,4.45,4.45,0,0,1-3.8,1.57,6.11,6.11,0,0,1-2.92-.68,3.51,3.51,0,0,1-1.69-2.41h-6.14a6.42,6.42,0,0,0,1.07,3.28,7.5,7.5,0,0,0,2.35,2.24,10.75,10.75,0,0,0,3.13,1.29A14.64,14.64,0,0,0,233.63,83.05Zm.52-13.79a4.35,4.35,0,0,1-2.39-.61,4.81,4.81,0,0,1-1.54-1.57,6.26,6.26,0,0,1-.83-2.15,12.23,12.23,0,0,1-.24-2.41,10.09,10.09,0,0,1,.28-2.42,5.93,5.93,0,0,1,.92-2,4.7,4.7,0,0,1,1.56-1.42,4.63,4.63,0,0,1,2.24-.52,5.07,5.07,0,0,1,2.53.57,4.51,4.51,0,0,1,1.61,1.52,6.84,6.84,0,0,1,.87,2.2,13,13,0,0,1,.26,2.63,8.15,8.15,0,0,1-.33,2.33,6.12,6.12,0,0,1-1,2,4.76,4.76,0,0,1-1.65,1.39A4.92,4.92,0,0,1,234.15,69.26Zm24.32,5.87a9,9,0,0,0,3.83-.87,7,7,0,0,0,3.05-2.82h.13v3.13h5.87V52.08h-6.18V63.87q0,3.43-1.13,4.93a4.27,4.27,0,0,1-3.65,1.5,3.36,3.36,0,0,1-3.09-1.37,7.85,7.85,0,0,1-.87-4.15V52.08h-6.18V65.91a18,18,0,0,0,.37,3.81,7.3,7.3,0,0,0,1.28,2.91,5.87,5.87,0,0,0,2.5,1.85A10.74,10.74,0,0,0,258.47,75.13Zm24.28,0a13.88,13.88,0,0,0,4.09-.61,8,8,0,0,0,3.48-2.13,9.16,9.16,0,0,0,.43,2.18H297a5.2,5.2,0,0,1-.61-2.09,22.78,22.78,0,0,1-.18-2.92h0V57.86a5.38,5.38,0,0,0-.91-3.28A6.28,6.28,0,0,0,293,52.64a10.63,10.63,0,0,0-3.17-.93,25.19,25.19,0,0,0-3.44-.24,18.62,18.62,0,0,0-3.72.37,10.53,10.53,0,0,0-3.33,1.24,7.35,7.35,0,0,0-2.44,2.3A7.19,7.19,0,0,0,275.79,59H282a3.52,3.52,0,0,1,1.22-2.61,4.72,4.72,0,0,1,2.87-.78,10.66,10.66,0,0,1,1.55.11,3.48,3.48,0,0,1,1.26.43,2.49,2.49,0,0,1,.87.92,3.23,3.23,0,0,1,.33,1.58,1.66,1.66,0,0,1-.57,1.46,4,4,0,0,1-1.65.76,16.27,16.27,0,0,1-2.39.4c-.9.08-1.82.2-2.75.34a27.17,27.17,0,0,0-2.76.59,8,8,0,0,0-2.43,1.11,5.41,5.41,0,0,0-1.74,2,6.56,6.56,0,0,0-.68,3.15,7.15,7.15,0,0,0,.59,3,5.58,5.58,0,0,0,1.63,2.08,6.91,6.91,0,0,0,2.44,1.22A11,11,0,0,0,282.75,75.13Zm2.3-4.09a7.46,7.46,0,0,1-1.43-.13,3.47,3.47,0,0,1-1.22-.45,2.4,2.4,0,0,1-.83-.9,2.92,2.92,0,0,1-.3-1.39,3,3,0,0,1,.3-1.43,2.83,2.83,0,0,1,.81-.94,4,4,0,0,1,1.17-.59,11,11,0,0,1,1.37-.34c.5-.09,1-.16,1.48-.22s1-.13,1.42-.22a8.9,8.9,0,0,0,1.26-.33,2.8,2.8,0,0,0,1-.54h0v2.31a12.53,12.53,0,0,1-.11,1.39,4.64,4.64,0,0,1-.59,1.72,4,4,0,0,1-1.48,1.45A5.43,5.43,0,0,1,285.05,71Zm25.93,12a15.33,15.33,0,0,0,6.18-1,9.46,9.46,0,0,0,3.52-2.55,7.45,7.45,0,0,0,1.59-3.24,14.83,14.83,0,0,0,.37-3.09v-21h-5.87v3h-.09a6.7,6.7,0,0,0-2.8-2.79,8.74,8.74,0,0,0-3.9-.82,8.82,8.82,0,0,0-7.18,3.37A11.21,11.21,0,0,0,301,58.41a13.94,13.94,0,0,0-.63,4.19,17.29,17.29,0,0,0,.55,4.38,10.07,10.07,0,0,0,1.72,3.61,8.14,8.14,0,0,0,3,2.43,9.76,9.76,0,0,0,4.35.9,9.3,9.3,0,0,0,3.89-.85,6.18,6.18,0,0,0,2.85-2.64h.09v3a6.17,6.17,0,0,1-1.15,4,4.48,4.48,0,0,1-3.81,1.57,6.14,6.14,0,0,1-2.92-.68,3.51,3.51,0,0,1-1.69-2.41h-6.14a6.52,6.52,0,0,0,1.07,3.28,7.61,7.61,0,0,0,2.35,2.24,10.87,10.87,0,0,0,3.13,1.29A14.71,14.71,0,0,0,311,83.05Zm.52-13.79a4.35,4.35,0,0,1-2.39-.61,4.81,4.81,0,0,1-1.54-1.57,6.47,6.47,0,0,1-.83-2.15,12.23,12.23,0,0,1-.24-2.41,10.62,10.62,0,0,1,.28-2.42,5.93,5.93,0,0,1,.92-2,4.7,4.7,0,0,1,1.56-1.42,4.63,4.63,0,0,1,2.24-.52,5.07,5.07,0,0,1,2.53.57,4.43,4.43,0,0,1,1.61,1.52,6.84,6.84,0,0,1,.87,2.2,13,13,0,0,1,.26,2.63,8.15,8.15,0,0,1-.33,2.33,6.12,6.12,0,0,1-1,2,4.76,4.76,0,0,1-1.65,1.39A4.92,4.92,0,0,1,311.5,69.26ZM338,75.13a11.75,11.75,0,0,0,6.52-1.74,10.33,10.33,0,0,0,4-5.78h-5.44a3.9,3.9,0,0,1-1.65,2,6.36,6.36,0,0,1-7.23-.42,6.3,6.3,0,0,1-1.52-4.35h16.23a15.62,15.62,0,0,0-.44-5,11.92,11.92,0,0,0-2-4.26,9.93,9.93,0,0,0-3.5-3,10.69,10.69,0,0,0-5-1.11,11.66,11.66,0,0,0-4.68.91,11.05,11.05,0,0,0-3.63,2.5,10.94,10.94,0,0,0-2.35,3.76,13.16,13.16,0,0,0-.83,4.7,13.64,13.64,0,0,0,.81,4.79,11,11,0,0,0,2.28,3.74,10,10,0,0,0,3.61,2.41A12.77,12.77,0,0,0,338,75.13Zm4.74-14.22H332.69a7,7,0,0,1,.28-1.48,4.58,4.58,0,0,1,.83-1.57,4.72,4.72,0,0,1,1.57-1.24,5.41,5.41,0,0,1,2.46-.5,4.36,4.36,0,0,1,3.37,1.22A7.12,7.12,0,0,1,342.74,60.91ZM159,118.77a19.21,19.21,0,0,0,5.59-.74,11.72,11.72,0,0,0,4-2.07,8.58,8.58,0,0,0,2.45-3.15,9.53,9.53,0,0,0,.83-4,7.64,7.64,0,0,0-1.11-4.29,9.43,9.43,0,0,0-2.63-2.67,11.74,11.74,0,0,0-3.07-1.46c-1-.3-1.83-.51-2.41-.63-1.95-.49-3.52-.9-4.72-1.22a18.39,18.39,0,0,1-2.83-1,3.09,3.09,0,0,1-1.37-1,2.82,2.82,0,0,1-.35-1.48,2.89,2.89,0,0,1,.44-1.65A3.72,3.72,0,0,1,155,92.36a4.43,4.43,0,0,1,1.5-.61,8.4,8.4,0,0,1,1.65-.17,11.32,11.32,0,0,1,2.33.22,5.45,5.45,0,0,1,1.89.74A3.83,3.83,0,0,1,163.7,94a5.44,5.44,0,0,1,.58,2.31h6.62a9.44,9.44,0,0,0-1-4.59,8.89,8.89,0,0,0-2.76-3.11,11.7,11.7,0,0,0-4-1.77,19.86,19.86,0,0,0-4.68-.54,15.75,15.75,0,0,0-4.17.57,11.36,11.36,0,0,0-3.74,1.74,9.16,9.16,0,0,0-2.68,2.93,8.17,8.17,0,0,0-1,4.16,7.66,7.66,0,0,0,.8,3.63,7.76,7.76,0,0,0,2.11,2.5,11.59,11.59,0,0,0,3,1.63,29.68,29.68,0,0,0,3.39,1.07c1.14.32,2.25.61,3.35.87a20.4,20.4,0,0,1,3,.91,6.39,6.39,0,0,1,2.11,1.31,2.7,2.7,0,0,1,.81,2,3,3,0,0,1-.61,1.94,4.27,4.27,0,0,1-1.52,1.2,6.84,6.84,0,0,1-2,.58,13.87,13.87,0,0,1-2,.15,10.25,10.25,0,0,1-2.61-.32,6.62,6.62,0,0,1-2.2-1,5,5,0,0,1-1.5-1.76,5.81,5.81,0,0,1-.56-2.66h-6.62a10.17,10.17,0,0,0,1.05,5,9.77,9.77,0,0,0,2.93,3.44,12.6,12.6,0,0,0,4.27,2A19.65,19.65,0,0,0,159,118.77Zm24.54-.13a9,9,0,0,0,3.82-.87,6.91,6.91,0,0,0,3.05-2.83h.13v3.13h5.87V95.58h-6.17v11.79q0,3.43-1.14,4.94a4.27,4.27,0,0,1-3.65,1.5,3.38,3.38,0,0,1-3.09-1.37,7.89,7.89,0,0,1-.87-4.16V95.58h-6.18v13.84a18.48,18.48,0,0,0,.37,3.8,7.29,7.29,0,0,0,1.29,2.92,6,6,0,0,0,2.5,1.85A10.9,10.9,0,0,0,183.56,118.64ZM207.31,126V115.29h.09a7.33,7.33,0,0,0,2.89,2.5,8.69,8.69,0,0,0,3.85.85,9.28,9.28,0,0,0,4.33-1,9.17,9.17,0,0,0,3.09-2.57,11.23,11.23,0,0,0,1.85-3.69,15.76,15.76,0,0,0,.61-4.35,17.3,17.3,0,0,0-.61-4.59,11.23,11.23,0,0,0-1.87-3.85A9.36,9.36,0,0,0,218.36,96a9.85,9.85,0,0,0-4.57-1,8.84,8.84,0,0,0-3.83.83,6.8,6.8,0,0,0-2.87,2.65H207V95.58h-5.88V126ZM212.49,114a4.74,4.74,0,0,1-4.2-2.2,6.65,6.65,0,0,1-.91-2.28,12.46,12.46,0,0,1-.29-2.66,14,14,0,0,1,.26-2.7,6.7,6.7,0,0,1,.9-2.3,5,5,0,0,1,1.65-1.63,5.37,5.37,0,0,1,5,0,5.16,5.16,0,0,1,1.67,1.65,7,7,0,0,1,.94,2.33,13,13,0,0,1,.28,2.65,13.87,13.87,0,0,1-.26,2.66,6.63,6.63,0,0,1-.89,2.28,5.15,5.15,0,0,1-1.66,1.59A5,5,0,0,1,212.49,114ZM233.89,126V115.29H234a7.33,7.33,0,0,0,2.89,2.5,8.72,8.72,0,0,0,3.85.85,9,9,0,0,0,7.42-3.53,11,11,0,0,0,1.85-3.69,15.76,15.76,0,0,0,.61-4.35,17.3,17.3,0,0,0-.61-4.59,11.23,11.23,0,0,0-1.87-3.85A9.36,9.36,0,0,0,244.94,96a9.82,9.82,0,0,0-4.57-1,8.79,8.79,0,0,0-3.82.83,6.82,6.82,0,0,0-2.88,2.65h-.08V95.58h-5.88V126ZM239.07,114a4.77,4.77,0,0,1-4.2-2.2,6.85,6.85,0,0,1-.91-2.28,12.46,12.46,0,0,1-.29-2.66,13.29,13.29,0,0,1,.27-2.7,6.69,6.69,0,0,1,.89-2.3,5,5,0,0,1,1.65-1.63,4.77,4.77,0,0,1,2.55-.63,4.69,4.69,0,0,1,2.5.63,5.16,5.16,0,0,1,1.67,1.65,7,7,0,0,1,.94,2.33,12.36,12.36,0,0,1,.28,2.65,13.87,13.87,0,0,1-.26,2.66,6.63,6.63,0,0,1-.89,2.28,4.7,4.7,0,0,1-4.2,2.2Zm26.15,4.61a13.32,13.32,0,0,0,4.8-.83,10.24,10.24,0,0,0,3.68-2.37,10.64,10.64,0,0,0,2.35-3.72,13.63,13.63,0,0,0,.82-4.87,13.88,13.88,0,0,0-.82-4.9,10.23,10.23,0,0,0-6-6.13,13.95,13.95,0,0,0-9.59,0,10.29,10.29,0,0,0-6,6.13,13.66,13.66,0,0,0-.83,4.9,13.41,13.41,0,0,0,.83,4.87,10.49,10.49,0,0,0,2.35,3.72,10.2,10.2,0,0,0,3.65,2.37A13.19,13.19,0,0,0,265.22,118.64Zm0-4.61a5.14,5.14,0,0,1-2.61-.61,4.77,4.77,0,0,1-1.68-1.63,7,7,0,0,1-.89-2.31,12.75,12.75,0,0,1-.26-2.63,13.11,13.11,0,0,1,.26-2.66,6.69,6.69,0,0,1,.89-2.3,4.77,4.77,0,0,1,4.29-2.26,5.1,5.1,0,0,1,2.63.63,4.89,4.89,0,0,1,1.69,1.63,6.91,6.91,0,0,1,.9,2.3,13.87,13.87,0,0,1,.26,2.66,13.48,13.48,0,0,1-.26,2.63,7.23,7.23,0,0,1-.9,2.31,4.72,4.72,0,0,1-1.69,1.63A5.3,5.3,0,0,1,265.22,114Zm21.83,4V107.94a12.58,12.58,0,0,1,.31-2.83,6.2,6.2,0,0,1,1-2.29,5,5,0,0,1,1.89-1.54,6.57,6.57,0,0,1,2.88-.57c.37,0,.76,0,1.17.07a9.91,9.91,0,0,1,1,.15V95.19A4.61,4.61,0,0,0,294,95a7.48,7.48,0,0,0-2.27.35,8.33,8.33,0,0,0-2,1,7.92,7.92,0,0,0-1.7,1.52,7.72,7.72,0,0,0-1.17,1.94h-.09V95.58h-5.87v22.49Zm19.5.22c.6,0,1.23,0,1.87,0a14.57,14.57,0,0,0,1.74-.18v-4.78a8.49,8.49,0,0,1-.92.13c-.32,0-.65,0-1,0a3,3,0,0,1-2.09-.52,3.08,3.08,0,0,1-.52-2.09V99.71h4.53V95.58h-4.53V88.84h-6.18v6.74h-3.74v4.13h3.74V113a5.69,5.69,0,0,0,.57,2.74,4,4,0,0,0,1.54,1.61,6.4,6.4,0,0,0,2.27.76A18,18,0,0,0,306.55,118.29Z" fill="#fff"/><path d="M36.65,64.46V38.32H16.14A16.13,16.13,0,0,0,0,54.44V133l14.24-14.22a17.15,17.15,0,0,0,1.9.12H64.57a16.14,16.14,0,0,0,16.15-16.12V80.58H52.8A16.14,16.14,0,0,1,36.65,64.46Z" fill="#2296d3"/><path d="M101.23,0H52.8A16.14,16.14,0,0,0,36.65,16.12v22.2H64.57A16.14,16.14,0,0,1,80.72,54.44V80.58h20.51a17,17,0,0,0,1.9-.12l14.24,14.22V16.12A16.13,16.13,0,0,0,101.23,0Z" fill="#41c3dd" fill-rule="evenodd" style="mix-blend-mode:multiply"/><path d="M64.57,38.32H36.65V64.46A16.14,16.14,0,0,0,52.8,80.58H80.72V54.44A16.14,16.14,0,0,0,64.57,38.32ZM69,61.23H61.42v7.55a2,2,0,0,1-4,0V61.23H49.87a2,2,0,0,1,0-4h7.55V49.68a2,2,0,1,1,4,0v7.55H69a2,2,0,0,1,0,4Z" fill="#0e73b6" fill-rule="evenodd"/></g></g></svg>